<svg xmlns="http://www.w3.org/2000/svg" width="14" height="14"><path fill="#4c7bf3" d="M7 1.261c1.87 0 2.092.008 2.827.041.684.03 1.053.145 1.299.241.325.126.561.279.804.522.246.246.396.479.525.804.096.246.211.618.241 1.299.033.738.041.96.041 2.827s-.008 2.092-.041 2.827c-.03.684-.145 1.053-.241 1.299a2.172 2.172 0 0 1-.522.804 2.204 2.204 0 0 1-.804.525c-.246.096-.618.211-1.299.241-.738.033-.96.041-2.827.041s-2.092-.008-2.827-.041c-.684-.03-1.053-.145-1.299-.241a2.172 2.172 0 0 1-.804-.522 2.204 2.204 0 0 1-.525-.804c-.096-.246-.211-.618-.241-1.299-.033-.738-.041-.96-.041-2.827s.008-2.092.041-2.827c.03-.684.145-1.053.241-1.299.126-.325.279-.561.522-.804.246-.246.479-.396.804-.525.246-.096.618-.211 1.299-.241.736-.033.957-.041 2.827-.041zM7 0C5.1 0 4.862.008 4.115.041 3.371.074 2.86.194 2.417.366c-.462.18-.853.418-1.241.809a3.416 3.416 0 0 0-.809 1.239c-.172.446-.293.954-.325 1.698C.009 4.861.001 5.099.001 7s.008 2.138.041 2.885c.033.744.153 1.255.325 1.698.18.462.418.853.809 1.241.388.388.779.629 1.239.807.446.172.954.293 1.698.325.746.033.984.041 2.885.041s2.138-.008 2.885-.041c.744-.033 1.255-.153 1.698-.325.459-.178.85-.418 1.239-.807s.629-.779.807-1.239c.172-.446.293-.954.325-1.698.033-.746.041-.984.041-2.885s-.008-2.138-.041-2.885c-.033-.744-.153-1.255-.325-1.698a3.271 3.271 0 0 0-.801-1.244 3.423 3.423 0 0 0-1.239-.807c-.446-.172-.954-.293-1.698-.325-.749-.036-.987-.044-2.888-.044z"/><path fill="#4c7bf3" d="M7 3.404C5.015 3.404 3.404 5.015 3.404 7S5.015 10.596 7 10.596 10.596 8.985 10.596 7A3.597 3.597 0 0 0 7 3.404zm0 5.928a2.333 2.333 0 1 1 .001-4.665A2.333 2.333 0 0 1 7 9.332zM11.577 3.262a.839.839 0 1 1-1.678 0 .839.839 0 0 1 1.678 0z"/></svg>
