<svg xmlns="http://www.w3.org/2000/svg" width="14" height="14"><path fill="#4c7bf3" d="M14 3.095a5.642 5.642 0 0 1-1.649.451 2.888 2.888 0 0 0 1.263-1.589 5.762 5.762 0 0 1-1.824.697 2.87 2.87 0 0 0-2.097-.905 2.87 2.87 0 0 0-2.797 3.525 8.15 8.15 0 0 1-5.92-3.002 2.874 2.874 0 0 0 .889 3.834 2.888 2.888 0 0 1-1.302-.358v.036c0 1.392.99 2.554 2.305 2.816a2.863 2.863 0 0 1-1.298.049 2.881 2.881 0 0 0 2.682 1.996 5.76 5.76 0 0 1-4.254 1.189 8.121 8.121 0 0 0 4.405 1.291c5.283 0 8.173-4.378 8.173-8.173 0-.126-.003-.249-.008-.372a5.783 5.783 0 0 0 1.433-1.485z"/></svg>
